# xmcd
#
# Track frame offsets:
#	150
#	10952
#	21576
#	32033
#	41720
#	56028
#	71110
#	83976
#	95759
#	105372
#	118701
#	132033
#	145009
#	160290
#	169242
#	181527
#	206046
#	215290
#	223894
#
# Disc length: 3200 seconds
#
# Revision: 1
# Processed by: cddbd v1.5.2PL0 Copyright (c) Steve Scherf et al.
# Submitted via: audiograbber 1.83.01
#
DISCID=170c7e13
DTITLE=johnnie ray - johnnie ray (1952) at the london palladium (1954)
DYEAR=2014
DGENRE=Vocal
TTITLE0=don't blame me
TTITLE1=walking my baby back home
TTITLE2=don't take your love from me
TTITLE3=all of me
TTITLE4=give me time
TTITLE5=the lady drinks champagne
TTITLE6=out in the cold again
TTITLE7=coffee and cigarettes
TTITLE8=please don't talk about me when i'm gone
TTITLE9=glad rag doll
TTITLE10=a hundred years from today
TTITLE11=somebody stole my gal
TTITLE12=with these hands
TTITLE13=walking my baby back home
TTITLE14=as time goes by
TTITLE15=such a night
TTITLE16=the little white cloud that cried
TTITLE17=cry
TTITLE18=i'm gonna walk and talk with my lord
EXTD=
EXTT0=
EXTT1=
EXTT2=
EXTT3=
EXTT4=
EXTT5=
EXTT6=
EXTT7=
EXTT8=
EXTT9=
EXTT10=
EXTT11=
EXTT12=
EXTT13=
EXTT14=
EXTT15=
EXTT16=
EXTT17=
EXTT18=
PLAYORDER=
